<svg width="180" height="106" viewBox="0 0 180 106" fill="none" xmlns="http://www.w3.org/2000/svg">
<rect x="11" y="1.00006" width="159" height="104.5" fill="#D9D9D9"/>
<path d="M179.416 53.9143C180.197 53.1332 180.197 51.8669 179.416 51.0858L166.688 38.3579C165.907 37.5769 164.64 37.5769 163.859 38.3579C163.078 39.139 163.078 40.4053 163.859 41.1864L175.173 52.5001L163.859 63.8138C163.078 64.5948 163.078 65.8611 163.859 66.6422C164.64 67.4232 165.907 67.4232 166.688 66.6422L179.416 53.9143ZM-0.00146484 52.5001L-0.00146484 54.5001H178.001V52.5001V50.5001H-0.00146484L-0.00146484 52.5001Z" fill="black"/>
<line x1="11" y1="3.00003" x2="170" y2="3.00003" stroke="black" stroke-width="5"/>
<line x1="10.9984" y1="103" x2="170.002" y2="103" stroke="black" stroke-width="5"/>
</svg>
