<svg width="180" height="105" viewBox="0 0 180 105" fill="none" xmlns="http://www.w3.org/2000/svg">
<rect x="11" y="0.500671" width="159" height="104.5" fill="#D9D9D9"/>
<path d="M179.416 53.4149C180.197 52.6338 180.197 51.3675 179.416 50.5865L166.688 37.8585C165.907 37.0775 164.64 37.0775 163.859 37.8585C163.078 38.6396 163.078 39.9059 163.859 40.687L175.173 52.0007L163.859 63.3144C163.078 64.0954 163.078 65.3618 163.859 66.1428C164.64 66.9239 165.907 66.9239 166.688 66.1428L179.416 53.4149ZM-0.00146484 52.0007L-0.00146484 54.0007H178.001V52.0007V50.0007H-0.00146484L-0.00146484 52.0007Z" fill="black"/>
<line x1="11" y1="2.50064" x2="170" y2="2.50064" stroke="black" stroke-width="5"/>
<line x1="10.9984" y1="102.501" x2="170.002" y2="102.501" stroke="black" stroke-width="5"/>
</svg>
