<svg width="180" height="106" viewBox="0 0 180 106" fill="none" xmlns="http://www.w3.org/2000/svg">
<rect x="11" y="1.00031" width="159" height="104.5" fill="#D9D9D9"/>
<path d="M179.416 53.9145C180.197 53.1335 180.197 51.8671 179.416 51.0861L166.688 38.3582C165.907 37.5771 164.64 37.5771 163.859 38.3582C163.078 39.1392 163.078 40.4055 163.859 41.1866L175.173 52.5003L163.859 63.814C163.078 64.5951 163.078 65.8614 163.859 66.6424C164.64 67.4235 165.907 67.4235 166.688 66.6424L179.416 53.9145ZM-0.00146484 52.5003L-0.00146484 54.5003H178.001V52.5003V50.5003H-0.00146484L-0.00146484 52.5003Z" fill="black"/>
<line x1="11" y1="3.00027" x2="170" y2="3.00027" stroke="black" stroke-width="5"/>
<line x1="10.9984" y1="103" x2="170.002" y2="103" stroke="black" stroke-width="5"/>
</svg>
