<svg width="180" height="106" viewBox="0 0 180 106" fill="none" xmlns="http://www.w3.org/2000/svg">
<rect x="11" y="1" width="159" height="104.5" fill="#D9D9D9"/>
<path d="M179.416 53.9142C180.197 53.1332 180.197 51.8668 179.416 51.0858L166.688 38.3579C165.907 37.5768 164.64 37.5768 163.859 38.3579C163.078 39.1389 163.078 40.4052 163.859 41.1863L175.173 52.5L163.859 63.8137C163.078 64.5948 163.078 65.8611 163.859 66.6421C164.64 67.4232 165.907 67.4232 166.688 66.6421L179.416 53.9142ZM-0.00146484 52.5L-0.00146484 54.5H178.001V52.5V50.5H-0.00146484L-0.00146484 52.5Z" fill="black"/>
<line x1="11" y1="2.99997" x2="170" y2="2.99997" stroke="black" stroke-width="5"/>
<line x1="10.9984" y1="103" x2="170.002" y2="103" stroke="black" stroke-width="5"/>
</svg>
