<svg width="1557" height="859" viewBox="0 0 1557 859" fill="none" xmlns="http://www.w3.org/2000/svg">
<circle cx="272.065" cy="316.425" r="26.5318" transform="rotate(90 272.065 316.425)" fill="white"/>
<circle cx="272.065" cy="316.425" r="2.65318" transform="rotate(90 272.065 316.425)" fill="white"/>
<circle cx="210.532" cy="316.425" r="26.5318" transform="rotate(90 210.532 316.425)" fill="white"/>
<circle cx="210.532" cy="316.425" r="2.65318" transform="rotate(90 210.532 316.425)" fill="white"/>
<circle cx="222.441" cy="353.345" r="26.5318" transform="rotate(90 222.441 353.345)" fill="white"/>
<circle cx="222.441" cy="353.344" r="2.65318" transform="rotate(90 222.441 353.344)" fill="white"/>
<circle cx="261.346" cy="353.212" r="26.5318" transform="rotate(90 261.346 353.212)" fill="white"/>
<circle cx="261.346" cy="353.212" r="2.65318" transform="rotate(90 261.346 353.212)" fill="white"/>
<circle cx="241.96" cy="293.466" r="26.4656" fill="white"/>
<circle cx="241.96" cy="293.466" r="2.64656" fill="white"/>
<circle cx="241.894" cy="327.144" r="19.8492" transform="rotate(90 241.894 327.144)" fill="#F3CC27"/>
<circle cx="241.894" cy="327.144" r="1.98492" transform="rotate(90 241.894 327.144)" fill="#F3CC27"/>
<circle cx="277.065" cy="685.425" r="26.5318" transform="rotate(90 277.065 685.425)" fill="white"/>
<circle cx="277.065" cy="685.425" r="2.65318" transform="rotate(90 277.065 685.425)" fill="white"/>
<circle cx="215.532" cy="685.425" r="26.5318" transform="rotate(90 215.532 685.425)" fill="white"/>
<circle cx="215.532" cy="685.425" r="2.65318" transform="rotate(90 215.532 685.425)" fill="white"/>
<circle cx="227.441" cy="722.345" r="26.5318" transform="rotate(90 227.441 722.345)" fill="white"/>
<circle cx="227.441" cy="722.345" r="2.65318" transform="rotate(90 227.441 722.345)" fill="white"/>
<circle cx="266.346" cy="722.212" r="26.5318" transform="rotate(90 266.346 722.212)" fill="white"/>
<circle cx="266.346" cy="722.212" r="2.65318" transform="rotate(90 266.346 722.212)" fill="white"/>
<circle cx="246.96" cy="662.466" r="26.4656" fill="white"/>
<circle cx="246.96" cy="662.466" r="2.64656" fill="white"/>
<circle cx="246.894" cy="696.144" r="19.8492" transform="rotate(90 246.894 696.144)" fill="#F3CC27"/>
<circle cx="246.894" cy="696.144" r="1.98492" transform="rotate(90 246.894 696.144)" fill="#F3CC27"/>
<circle cx="510.065" cy="759.425" r="26.5318" transform="rotate(90 510.065 759.425)" fill="white"/>
<circle cx="510.065" cy="759.425" r="2.65318" transform="rotate(90 510.065 759.425)" fill="white"/>
<circle cx="448.532" cy="759.425" r="26.5318" transform="rotate(90 448.532 759.425)" fill="white"/>
<circle cx="448.532" cy="759.425" r="2.65318" transform="rotate(90 448.532 759.425)" fill="white"/>
<circle cx="460.441" cy="796.345" r="26.5318" transform="rotate(90 460.441 796.345)" fill="white"/>
<circle cx="460.441" cy="796.345" r="2.65318" transform="rotate(90 460.441 796.345)" fill="white"/>
<circle cx="499.346" cy="796.212" r="26.5318" transform="rotate(90 499.346 796.212)" fill="white"/>
<circle cx="499.346" cy="796.212" r="2.65318" transform="rotate(90 499.346 796.212)" fill="white"/>
<circle cx="479.96" cy="736.466" r="26.4656" fill="white"/>
<circle cx="479.96" cy="736.466" r="2.64656" fill="white"/>
<circle cx="479.894" cy="770.144" r="19.8492" transform="rotate(90 479.894 770.144)" fill="#F3CC27"/>
<circle cx="479.894" cy="770.144" r="1.98492" transform="rotate(90 479.894 770.144)" fill="#F3CC27"/>
<circle cx="774.065" cy="714.425" r="26.5318" transform="rotate(90 774.065 714.425)" fill="white"/>
<circle cx="774.065" cy="714.425" r="2.65318" transform="rotate(90 774.065 714.425)" fill="white"/>
<circle cx="712.532" cy="714.425" r="26.5318" transform="rotate(90 712.532 714.425)" fill="white"/>
<circle cx="712.532" cy="714.425" r="2.65318" transform="rotate(90 712.532 714.425)" fill="white"/>
<circle cx="724.441" cy="751.345" r="26.5318" transform="rotate(90 724.441 751.345)" fill="white"/>
<circle cx="724.441" cy="751.345" r="2.65318" transform="rotate(90 724.441 751.345)" fill="white"/>
<circle cx="763.346" cy="751.212" r="26.5318" transform="rotate(90 763.346 751.212)" fill="white"/>
<circle cx="763.346" cy="751.212" r="2.65318" transform="rotate(90 763.346 751.212)" fill="white"/>
<circle cx="743.96" cy="691.466" r="26.4656" fill="white"/>
<circle cx="743.96" cy="691.466" r="2.64656" fill="white"/>
<circle cx="743.894" cy="725.144" r="19.8492" transform="rotate(90 743.894 725.144)" fill="#F3CC27"/>
<circle cx="743.894" cy="725.144" r="1.98492" transform="rotate(90 743.894 725.144)" fill="#F3CC27"/>
<circle cx="971.065" cy="783.425" r="26.5318" transform="rotate(90 971.065 783.425)" fill="white"/>
<circle cx="971.065" cy="783.425" r="2.65318" transform="rotate(90 971.065 783.425)" fill="white"/>
<circle cx="909.532" cy="783.425" r="26.5318" transform="rotate(90 909.532 783.425)" fill="white"/>
<circle cx="909.532" cy="783.425" r="2.65318" transform="rotate(90 909.532 783.425)" fill="white"/>
<circle cx="921.441" cy="820.345" r="26.5318" transform="rotate(90 921.441 820.345)" fill="white"/>
<circle cx="921.441" cy="820.345" r="2.65318" transform="rotate(90 921.441 820.345)" fill="white"/>
<circle cx="960.346" cy="820.212" r="26.5318" transform="rotate(90 960.346 820.212)" fill="white"/>
<circle cx="960.346" cy="820.212" r="2.65318" transform="rotate(90 960.346 820.212)" fill="white"/>
<circle cx="940.96" cy="760.466" r="26.4656" fill="white"/>
<circle cx="940.96" cy="760.466" r="2.64656" fill="white"/>
<circle cx="940.894" cy="794.144" r="19.8492" transform="rotate(90 940.894 794.144)" fill="#F3CC27"/>
<circle cx="940.894" cy="794.144" r="1.98492" transform="rotate(90 940.894 794.144)" fill="#F3CC27"/>
<circle cx="1150.06" cy="719.425" r="26.5318" transform="rotate(90 1150.06 719.425)" fill="white"/>
<circle cx="1150.06" cy="719.425" r="2.65318" transform="rotate(90 1150.06 719.425)" fill="white"/>
<circle cx="1088.53" cy="719.425" r="26.5318" transform="rotate(90 1088.53 719.425)" fill="white"/>
<circle cx="1088.53" cy="719.425" r="2.65318" transform="rotate(90 1088.53 719.425)" fill="white"/>
<circle cx="1100.44" cy="756.345" r="26.5318" transform="rotate(90 1100.44 756.345)" fill="white"/>
<circle cx="1100.44" cy="756.345" r="2.65318" transform="rotate(90 1100.44 756.345)" fill="white"/>
<circle cx="1139.35" cy="756.212" r="26.5318" transform="rotate(90 1139.35 756.212)" fill="white"/>
<circle cx="1139.35" cy="756.212" r="2.65318" transform="rotate(90 1139.35 756.212)" fill="white"/>
<circle cx="1119.96" cy="696.466" r="26.4656" fill="white"/>
<circle cx="1119.96" cy="696.466" r="2.64656" fill="white"/>
<circle cx="1119.89" cy="730.144" r="19.8492" transform="rotate(90 1119.89 730.144)" fill="#F3CC27"/>
<circle cx="1119.89" cy="730.144" r="1.98492" transform="rotate(90 1119.89 730.144)" fill="#F3CC27"/>
<circle cx="1383.06" cy="716.425" r="26.5318" transform="rotate(90 1383.06 716.425)" fill="white"/>
<circle cx="1383.06" cy="716.425" r="2.65318" transform="rotate(90 1383.06 716.425)" fill="white"/>
<circle cx="1321.53" cy="716.425" r="26.5318" transform="rotate(90 1321.53 716.425)" fill="white"/>
<circle cx="1321.53" cy="716.425" r="2.65318" transform="rotate(90 1321.53 716.425)" fill="white"/>
<circle cx="1333.44" cy="753.345" r="26.5318" transform="rotate(90 1333.44 753.345)" fill="white"/>
<circle cx="1333.44" cy="753.345" r="2.65318" transform="rotate(90 1333.44 753.345)" fill="white"/>
<circle cx="1372.35" cy="753.212" r="26.5318" transform="rotate(90 1372.35 753.212)" fill="white"/>
<circle cx="1372.35" cy="753.212" r="2.65318" transform="rotate(90 1372.35 753.212)" fill="white"/>
<circle cx="1352.96" cy="693.466" r="26.4656" fill="white"/>
<circle cx="1352.96" cy="693.466" r="2.64656" fill="white"/>
<circle cx="1352.89" cy="727.144" r="19.8492" transform="rotate(90 1352.89 727.144)" fill="#F3CC27"/>
<circle cx="1352.89" cy="727.144" r="1.98492" transform="rotate(90 1352.89 727.144)" fill="#F3CC27"/>
<circle cx="403.065" cy="491.425" r="26.5318" transform="rotate(90 403.065 491.425)" fill="white"/>
<circle cx="403.065" cy="491.425" r="2.65318" transform="rotate(90 403.065 491.425)" fill="white"/>
<circle cx="341.532" cy="491.425" r="26.5318" transform="rotate(90 341.532 491.425)" fill="white"/>
<circle cx="341.532" cy="491.425" r="2.65318" transform="rotate(90 341.532 491.425)" fill="white"/>
<circle cx="353.441" cy="528.344" r="26.5318" transform="rotate(90 353.441 528.344)" fill="white"/>
<circle cx="353.441" cy="528.344" r="2.65318" transform="rotate(90 353.441 528.344)" fill="white"/>
<circle cx="392.346" cy="528.212" r="26.5318" transform="rotate(90 392.346 528.212)" fill="white"/>
<circle cx="392.346" cy="528.212" r="2.65318" transform="rotate(90 392.346 528.212)" fill="white"/>
<circle cx="372.96" cy="468.466" r="26.4656" fill="white"/>
<circle cx="372.96" cy="468.466" r="2.64656" fill="white"/>
<circle cx="372.894" cy="502.144" r="19.8492" transform="rotate(90 372.894 502.144)" fill="#F3CC27"/>
<circle cx="372.894" cy="502.144" r="1.98492" transform="rotate(90 372.894 502.144)" fill="#F3CC27"/>
<circle cx="88.0648" cy="58.4246" r="26.5318" transform="rotate(90 88.0648 58.4246)" fill="white"/>
<circle cx="88.0647" cy="58.4246" r="2.65318" transform="rotate(90 88.0647 58.4246)" fill="white"/>
<circle cx="26.5318" cy="58.425" r="26.5318" transform="rotate(90 26.5318 58.425)" fill="white"/>
<circle cx="26.5318" cy="58.425" r="2.65318" transform="rotate(90 26.5318 58.425)" fill="white"/>
<circle cx="38.4414" cy="95.3445" r="26.5318" transform="rotate(90 38.4414 95.3445)" fill="white"/>
<circle cx="38.4413" cy="95.3445" r="2.65318" transform="rotate(90 38.4413 95.3445)" fill="white"/>
<circle cx="77.3459" cy="95.2121" r="26.5318" transform="rotate(90 77.3459 95.2121)" fill="white"/>
<circle cx="77.3458" cy="95.2121" r="2.65318" transform="rotate(90 77.3458 95.2121)" fill="white"/>
<circle cx="57.9601" cy="35.4656" r="26.4656" fill="white"/>
<circle cx="57.9602" cy="35.4656" r="2.64656" fill="white"/>
<circle cx="57.8941" cy="69.1436" r="19.8492" transform="rotate(90 57.8941 69.1436)" fill="#F3CC27"/>
<circle cx="57.8941" cy="69.1436" r="1.98492" transform="rotate(90 57.8941 69.1436)" fill="#F3CC27"/>
<circle cx="540.065" cy="176.425" r="26.5318" transform="rotate(90 540.065 176.425)" fill="white"/>
<circle cx="540.065" cy="176.425" r="2.65318" transform="rotate(90 540.065 176.425)" fill="white"/>
<circle cx="478.532" cy="176.425" r="26.5318" transform="rotate(90 478.532 176.425)" fill="white"/>
<circle cx="478.532" cy="176.425" r="2.65318" transform="rotate(90 478.532 176.425)" fill="white"/>
<circle cx="490.441" cy="213.344" r="26.5318" transform="rotate(90 490.441 213.344)" fill="white"/>
<circle cx="490.441" cy="213.345" r="2.65318" transform="rotate(90 490.441 213.345)" fill="white"/>
<circle cx="529.346" cy="213.212" r="26.5318" transform="rotate(90 529.346 213.212)" fill="white"/>
<circle cx="529.346" cy="213.212" r="2.65318" transform="rotate(90 529.346 213.212)" fill="white"/>
<circle cx="509.96" cy="153.466" r="26.4656" fill="white"/>
<circle cx="509.96" cy="153.466" r="2.64656" fill="white"/>
<circle cx="509.894" cy="187.144" r="19.8492" transform="rotate(90 509.894 187.144)" fill="#F3CC27"/>
<circle cx="509.894" cy="187.144" r="1.98492" transform="rotate(90 509.894 187.144)" fill="#F3CC27"/>
<circle cx="375.065" cy="49.4246" r="26.5318" transform="rotate(90 375.065 49.4246)" fill="white"/>
<circle cx="375.065" cy="49.4246" r="2.65318" transform="rotate(90 375.065 49.4246)" fill="white"/>
<circle cx="313.532" cy="49.425" r="26.5318" transform="rotate(90 313.532 49.425)" fill="white"/>
<circle cx="313.532" cy="49.425" r="2.65318" transform="rotate(90 313.532 49.425)" fill="white"/>
<circle cx="325.441" cy="86.3445" r="26.5318" transform="rotate(90 325.441 86.3445)" fill="white"/>
<circle cx="325.441" cy="86.3445" r="2.65318" transform="rotate(90 325.441 86.3445)" fill="white"/>
<circle cx="364.346" cy="86.2121" r="26.5318" transform="rotate(90 364.346 86.2121)" fill="white"/>
<circle cx="364.346" cy="86.2121" r="2.65318" transform="rotate(90 364.346 86.2121)" fill="white"/>
<circle cx="344.96" cy="26.4656" r="26.4656" fill="white"/>
<circle cx="344.96" cy="26.4656" r="2.64656" fill="white"/>
<circle cx="344.894" cy="60.1436" r="19.8492" transform="rotate(90 344.894 60.1436)" fill="#F3CC27"/>
<circle cx="344.894" cy="60.1436" r="1.98492" transform="rotate(90 344.894 60.1436)" fill="#F3CC27"/>
<circle cx="883.065" cy="195.425" r="26.5318" transform="rotate(90 883.065 195.425)" fill="white"/>
<circle cx="883.065" cy="195.425" r="2.65318" transform="rotate(90 883.065 195.425)" fill="white"/>
<circle cx="821.532" cy="195.425" r="26.5318" transform="rotate(90 821.532 195.425)" fill="white"/>
<circle cx="821.532" cy="195.425" r="2.65318" transform="rotate(90 821.532 195.425)" fill="white"/>
<circle cx="833.441" cy="232.344" r="26.5318" transform="rotate(90 833.441 232.344)" fill="white"/>
<circle cx="833.441" cy="232.345" r="2.65318" transform="rotate(90 833.441 232.345)" fill="white"/>
<circle cx="872.346" cy="232.212" r="26.5318" transform="rotate(90 872.346 232.212)" fill="white"/>
<circle cx="872.346" cy="232.212" r="2.65318" transform="rotate(90 872.346 232.212)" fill="white"/>
<circle cx="852.96" cy="172.466" r="26.4656" fill="white"/>
<circle cx="852.96" cy="172.466" r="2.64656" fill="white"/>
<circle cx="852.894" cy="206.144" r="19.8492" transform="rotate(90 852.894 206.144)" fill="#F3CC27"/>
<circle cx="852.894" cy="206.144" r="1.98492" transform="rotate(90 852.894 206.144)" fill="#F3CC27"/>
<circle cx="734.065" cy="56.4246" r="26.5318" transform="rotate(90 734.065 56.4246)" fill="white"/>
<circle cx="734.065" cy="56.4246" r="2.65318" transform="rotate(90 734.065 56.4246)" fill="white"/>
<circle cx="672.532" cy="56.425" r="26.5318" transform="rotate(90 672.532 56.425)" fill="white"/>
<circle cx="672.532" cy="56.425" r="2.65318" transform="rotate(90 672.532 56.425)" fill="white"/>
<circle cx="684.441" cy="93.3445" r="26.5318" transform="rotate(90 684.441 93.3445)" fill="white"/>
<circle cx="684.441" cy="93.3445" r="2.65318" transform="rotate(90 684.441 93.3445)" fill="white"/>
<circle cx="723.346" cy="93.2121" r="26.5318" transform="rotate(90 723.346 93.2121)" fill="white"/>
<circle cx="723.346" cy="93.2121" r="2.65318" transform="rotate(90 723.346 93.2121)" fill="white"/>
<circle cx="703.96" cy="33.4656" r="26.4656" fill="white"/>
<circle cx="703.96" cy="33.4656" r="2.64656" fill="white"/>
<circle cx="703.894" cy="67.1436" r="19.8492" transform="rotate(90 703.894 67.1436)" fill="#F3CC27"/>
<circle cx="703.894" cy="67.1436" r="1.98492" transform="rotate(90 703.894 67.1436)" fill="#F3CC27"/>
<circle cx="918.065" cy="572.425" r="26.5318" transform="rotate(90 918.065 572.425)" fill="white"/>
<circle cx="918.065" cy="572.425" r="2.65318" transform="rotate(90 918.065 572.425)" fill="white"/>
<circle cx="856.532" cy="572.425" r="26.5318" transform="rotate(90 856.532 572.425)" fill="white"/>
<circle cx="856.532" cy="572.425" r="2.65318" transform="rotate(90 856.532 572.425)" fill="white"/>
<circle cx="868.441" cy="609.345" r="26.5318" transform="rotate(90 868.441 609.345)" fill="white"/>
<circle cx="868.441" cy="609.345" r="2.65318" transform="rotate(90 868.441 609.345)" fill="white"/>
<circle cx="907.346" cy="609.212" r="26.5318" transform="rotate(90 907.346 609.212)" fill="white"/>
<circle cx="907.346" cy="609.212" r="2.65318" transform="rotate(90 907.346 609.212)" fill="white"/>
<circle cx="887.96" cy="549.466" r="26.4656" fill="white"/>
<circle cx="887.96" cy="549.466" r="2.64656" fill="white"/>
<circle cx="887.894" cy="583.144" r="19.8492" transform="rotate(90 887.894 583.144)" fill="#F3CC27"/>
<circle cx="887.894" cy="583.144" r="1.98492" transform="rotate(90 887.894 583.144)" fill="#F3CC27"/>
<circle cx="1051.06" cy="64.4246" r="26.5318" transform="rotate(90 1051.06 64.4246)" fill="white"/>
<circle cx="1051.06" cy="64.4246" r="2.65318" transform="rotate(90 1051.06 64.4246)" fill="white"/>
<circle cx="989.532" cy="64.425" r="26.5318" transform="rotate(90 989.532 64.425)" fill="white"/>
<circle cx="989.532" cy="64.425" r="2.65318" transform="rotate(90 989.532 64.425)" fill="white"/>
<circle cx="1001.44" cy="101.344" r="26.5318" transform="rotate(90 1001.44 101.344)" fill="white"/>
<circle cx="1001.44" cy="101.345" r="2.65318" transform="rotate(90 1001.44 101.345)" fill="white"/>
<circle cx="1040.35" cy="101.212" r="26.5318" transform="rotate(90 1040.35 101.212)" fill="white"/>
<circle cx="1040.35" cy="101.212" r="2.65318" transform="rotate(90 1040.35 101.212)" fill="white"/>
<circle cx="1020.96" cy="41.4656" r="26.4656" fill="white"/>
<circle cx="1020.96" cy="41.4656" r="2.64656" fill="white"/>
<circle cx="1020.89" cy="75.1436" r="19.8492" transform="rotate(90 1020.89 75.1436)" fill="#F3CC27"/>
<circle cx="1020.89" cy="75.1436" r="1.98492" transform="rotate(90 1020.89 75.1436)" fill="#F3CC27"/>
<circle cx="1185.06" cy="173.425" r="26.5318" transform="rotate(90 1185.06 173.425)" fill="white"/>
<circle cx="1185.06" cy="173.425" r="2.65318" transform="rotate(90 1185.06 173.425)" fill="white"/>
<circle cx="1123.53" cy="173.425" r="26.5318" transform="rotate(90 1123.53 173.425)" fill="white"/>
<circle cx="1123.53" cy="173.425" r="2.65318" transform="rotate(90 1123.53 173.425)" fill="white"/>
<circle cx="1135.44" cy="210.344" r="26.5318" transform="rotate(90 1135.44 210.344)" fill="white"/>
<circle cx="1135.44" cy="210.345" r="2.65318" transform="rotate(90 1135.44 210.345)" fill="white"/>
<circle cx="1174.35" cy="210.212" r="26.5318" transform="rotate(90 1174.35 210.212)" fill="white"/>
<circle cx="1174.35" cy="210.212" r="2.65318" transform="rotate(90 1174.35 210.212)" fill="white"/>
<circle cx="1154.96" cy="150.466" r="26.4656" fill="white"/>
<circle cx="1154.96" cy="150.466" r="2.64656" fill="white"/>
<circle cx="1154.89" cy="184.144" r="19.8492" transform="rotate(90 1154.89 184.144)" fill="#F3CC27"/>
<circle cx="1154.89" cy="184.144" r="1.98492" transform="rotate(90 1154.89 184.144)" fill="#F3CC27"/>
<circle cx="1329.06" cy="68.4246" r="26.5318" transform="rotate(90 1329.06 68.4246)" fill="white"/>
<circle cx="1329.06" cy="68.4246" r="2.65318" transform="rotate(90 1329.06 68.4246)" fill="white"/>
<circle cx="1267.53" cy="68.425" r="26.5318" transform="rotate(90 1267.53 68.425)" fill="white"/>
<circle cx="1267.53" cy="68.425" r="2.65318" transform="rotate(90 1267.53 68.425)" fill="white"/>
<circle cx="1279.44" cy="105.344" r="26.5318" transform="rotate(90 1279.44 105.344)" fill="white"/>
<circle cx="1279.44" cy="105.345" r="2.65318" transform="rotate(90 1279.44 105.345)" fill="white"/>
<circle cx="1318.35" cy="105.212" r="26.5318" transform="rotate(90 1318.35 105.212)" fill="white"/>
<circle cx="1318.35" cy="105.212" r="2.65318" transform="rotate(90 1318.35 105.212)" fill="white"/>
<circle cx="1298.96" cy="45.4656" r="26.4656" fill="white"/>
<circle cx="1298.96" cy="45.4656" r="2.64656" fill="white"/>
<circle cx="1298.89" cy="79.1436" r="19.8492" transform="rotate(90 1298.89 79.1436)" fill="#F3CC27"/>
<circle cx="1298.89" cy="79.1436" r="1.98492" transform="rotate(90 1298.89 79.1436)" fill="#F3CC27"/>
<circle cx="1506.06" cy="178.425" r="26.5318" transform="rotate(90 1506.06 178.425)" fill="white"/>
<circle cx="1506.06" cy="178.425" r="2.65318" transform="rotate(90 1506.06 178.425)" fill="white"/>
<circle cx="1444.53" cy="178.425" r="26.5318" transform="rotate(90 1444.53 178.425)" fill="white"/>
<circle cx="1444.53" cy="178.425" r="2.65318" transform="rotate(90 1444.53 178.425)" fill="white"/>
<circle cx="1456.44" cy="215.344" r="26.5318" transform="rotate(90 1456.44 215.344)" fill="white"/>
<circle cx="1456.44" cy="215.345" r="2.65318" transform="rotate(90 1456.44 215.345)" fill="white"/>
<circle cx="1495.35" cy="215.212" r="26.5318" transform="rotate(90 1495.35 215.212)" fill="white"/>
<circle cx="1495.35" cy="215.212" r="2.65318" transform="rotate(90 1495.35 215.212)" fill="white"/>
<circle cx="1475.96" cy="155.466" r="26.4656" fill="white"/>
<circle cx="1475.96" cy="155.466" r="2.64656" fill="white"/>
<circle cx="1475.89" cy="189.144" r="19.8492" transform="rotate(90 1475.89 189.144)" fill="#F3CC27"/>
<circle cx="1475.89" cy="189.144" r="1.98492" transform="rotate(90 1475.89 189.144)" fill="#F3CC27"/>
<circle cx="1417.06" cy="395.425" r="26.5318" transform="rotate(90 1417.06 395.425)" fill="white"/>
<circle cx="1417.06" cy="395.425" r="2.65318" transform="rotate(90 1417.06 395.425)" fill="white"/>
<circle cx="1355.53" cy="395.425" r="26.5318" transform="rotate(90 1355.53 395.425)" fill="white"/>
<circle cx="1355.53" cy="395.425" r="2.65318" transform="rotate(90 1355.53 395.425)" fill="white"/>
<circle cx="1367.44" cy="432.345" r="26.5318" transform="rotate(90 1367.44 432.345)" fill="white"/>
<circle cx="1367.44" cy="432.344" r="2.65318" transform="rotate(90 1367.44 432.344)" fill="white"/>
<circle cx="1406.35" cy="432.212" r="26.5318" transform="rotate(90 1406.35 432.212)" fill="white"/>
<circle cx="1406.35" cy="432.212" r="2.65318" transform="rotate(90 1406.35 432.212)" fill="white"/>
<circle cx="1386.96" cy="372.466" r="26.4656" fill="white"/>
<circle cx="1386.96" cy="372.466" r="2.64656" fill="white"/>
<circle cx="1386.89" cy="406.144" r="19.8492" transform="rotate(90 1386.89 406.144)" fill="#F3CC27"/>
<circle cx="1386.89" cy="406.144" r="1.98492" transform="rotate(90 1386.89 406.144)" fill="#F3CC27"/>
<circle cx="1542.06" cy="578.425" r="26.5318" transform="rotate(90 1542.06 578.425)" fill="white"/>
<circle cx="1542.06" cy="578.425" r="2.65318" transform="rotate(90 1542.06 578.425)" fill="white"/>
<circle cx="1480.53" cy="578.425" r="26.5318" transform="rotate(90 1480.53 578.425)" fill="white"/>
<circle cx="1480.53" cy="578.425" r="2.65318" transform="rotate(90 1480.53 578.425)" fill="white"/>
<circle cx="1492.44" cy="615.345" r="26.5318" transform="rotate(90 1492.44 615.345)" fill="white"/>
<circle cx="1492.44" cy="615.345" r="2.65318" transform="rotate(90 1492.44 615.345)" fill="white"/>
<circle cx="1531.35" cy="615.212" r="26.5318" transform="rotate(90 1531.35 615.212)" fill="white"/>
<circle cx="1531.35" cy="615.212" r="2.65318" transform="rotate(90 1531.35 615.212)" fill="white"/>
<circle cx="1511.96" cy="555.466" r="26.4656" fill="white"/>
<circle cx="1511.96" cy="555.466" r="2.64656" fill="white"/>
<circle cx="1511.89" cy="589.144" r="19.8492" transform="rotate(90 1511.89 589.144)" fill="#F3CC27"/>
<circle cx="1511.89" cy="589.144" r="1.98492" transform="rotate(90 1511.89 589.144)" fill="#F3CC27"/>
<circle cx="1568.06" cy="795.425" r="26.5318" transform="rotate(90 1568.06 795.425)" fill="white"/>
<circle cx="1506.53" cy="795.425" r="26.5318" transform="rotate(90 1506.53 795.425)" fill="white"/>
<circle cx="1506.53" cy="795.425" r="2.65318" transform="rotate(90 1506.53 795.425)" fill="white"/>
<circle cx="1518.44" cy="832.345" r="26.5318" transform="rotate(90 1518.44 832.345)" fill="white"/>
<circle cx="1518.44" cy="832.345" r="2.65318" transform="rotate(90 1518.44 832.345)" fill="white"/>
<circle cx="1557.35" cy="832.212" r="26.5318" transform="rotate(90 1557.35 832.212)" fill="white"/>
<circle cx="1557.35" cy="832.212" r="2.65318" transform="rotate(90 1557.35 832.212)" fill="white"/>
<circle cx="1537.96" cy="772.466" r="26.4656" fill="white"/>
<circle cx="1537.96" cy="772.466" r="2.64656" fill="white"/>
<circle cx="1537.89" cy="806.144" r="19.8492" transform="rotate(90 1537.89 806.144)" fill="#F3CC27"/>
<circle cx="1537.89" cy="806.144" r="1.98492" transform="rotate(90 1537.89 806.144)" fill="#F3CC27"/>
<circle cx="1216.06" cy="468.425" r="26.5318" transform="rotate(90 1216.06 468.425)" fill="white"/>
<circle cx="1216.06" cy="468.425" r="2.65318" transform="rotate(90 1216.06 468.425)" fill="white"/>
<circle cx="1154.53" cy="468.425" r="26.5318" transform="rotate(90 1154.53 468.425)" fill="white"/>
<circle cx="1154.53" cy="468.425" r="2.65318" transform="rotate(90 1154.53 468.425)" fill="white"/>
<circle cx="1166.44" cy="505.345" r="26.5318" transform="rotate(90 1166.44 505.345)" fill="white"/>
<circle cx="1166.44" cy="505.344" r="2.65318" transform="rotate(90 1166.44 505.344)" fill="white"/>
<circle cx="1205.35" cy="505.212" r="26.5318" transform="rotate(90 1205.35 505.212)" fill="white"/>
<circle cx="1205.35" cy="505.212" r="2.65318" transform="rotate(90 1205.35 505.212)" fill="white"/>
<circle cx="1185.96" cy="445.466" r="26.4656" fill="white"/>
<circle cx="1185.96" cy="445.466" r="2.64656" fill="white"/>
<circle cx="1185.89" cy="479.144" r="19.8492" transform="rotate(90 1185.89 479.144)" fill="#F3CC27"/>
<circle cx="1185.89" cy="479.144" r="1.98492" transform="rotate(90 1185.89 479.144)" fill="#F3CC27"/>
</svg>
