<svg width="180" height="106" viewBox="0 0 180 106" fill="none" xmlns="http://www.w3.org/2000/svg">
<rect x="11" y="0.600647" width="159" height="104.5" fill="#D9D9D9"/>
<path d="M179.416 53.5149C180.197 52.7338 180.197 51.4675 179.416 50.6864L166.688 37.9585C165.907 37.1775 164.64 37.1775 163.859 37.9585C163.078 38.7396 163.078 40.0059 163.859 40.7869L175.173 52.1006L163.859 63.4144C163.078 64.1954 163.078 65.4617 163.859 66.2428C164.64 67.0238 165.907 67.0238 166.688 66.2428L179.416 53.5149ZM-0.00146484 52.1006L-0.00146484 54.1006H178.001V52.1006V50.1006H-0.00146484L-0.00146484 52.1006Z" fill="black"/>
<line x1="11" y1="2.60065" x2="170" y2="2.60065" stroke="black" stroke-width="5"/>
<line x1="10.9984" y1="102.601" x2="170.002" y2="102.601" stroke="black" stroke-width="5"/>
</svg>
